<?xml version="1.0" encoding="UTF-8"?>
<svg id="Layer_2" data-name="Layer 2" xmlns="http://www.w3.org/2000/svg" viewBox="0 0 245.24 632.74">
  <defs>
    <style>
      .cls-1 {
        fill: none;
        stroke: #000;
        stroke-miterlimit: 10;
        stroke-width: 2px;
      }
    </style>
  </defs>
  <g id="Layer_1-2" data-name="Layer 1">
    <path class="cls-1" d="m77.58,210.07c.3-.09.61-.17.91-.26.98,2.05,2.09,4.06,2.91,6.17,7.77,19.96,15.64,39.89,23.2,59.93,14.96,39.65,29.48,79.47,44.68,119.03,10.36,26.96,21.27,53.71,32.5,80.32,5.74,13.6,13.15,26.49,19.01,40.04,13.22,30.56,25.95,61.34,38.89,92.03.39.92.68,1.97,1.32,2.66.57.62,1.58.83,2.4,1.22.29-.85.99-1.8.81-2.54-.63-2.58-1.63-5.07-2.38-7.63-11.23-38.54-22.71-77.01-33.55-115.66-6.29-22.43-9.75-45.81-17.66-67.6-14.73-40.53-31.55-80.31-47.92-120.23C108.68,214.57,75.97,131.14,53.6,44.04c-2.54-9.89-6.32-19.69-11.02-28.76C34.32-.69,31.58-1.33,14.4,4,3.99,7.23,1.58,10.66,1.07,21.5c-.68,14.37,3.7,27.57,8.63,40.72,5.07,13.52,11.1,26.79,14.89,40.67,7.39,27.07,14.35,54.31,19.95,81.79,8.3,40.7,15.36,81.65,22.76,122.53,6.43,35.51,12.33,71.11,18.94,106.58,5.04,27.03,12.28,53.5,22.96,78.92,4.51,10.73,9.3,21.34,13.98,32,14.86,33.83,29.72,67.66,44.65,101.45.84,1.91,2.31,3.54,3.49,5.3.56-.27,1.12-.54,1.69-.81-.4-1.76-.64-3.58-1.21-5.28-8.42-24.94-18.12-49.52-24.98-74.88-7.03-25.99-10.96-52.81-16.83-79.14-7.18-32.2-15.82-64.09-22.3-96.42-9.38-46.87-17.4-94.01-25.98-141.05-1.45-7.93-2.76-15.88-4.14-23.81Z"/>
  </g>
</svg>