<?xml version="1.0" encoding="UTF-8"?>
<svg id="Layer_2" data-name="Layer 2" xmlns="http://www.w3.org/2000/svg" viewBox="0 0 293.27 765.02">
  <defs>
    <style>
      .cls-1 {
        fill: none;
        stroke: #565656;
        stroke-miterlimit: 10;
        stroke-width: 2px;
      }
    </style>
  </defs>
  <g id="Layer_1-2" data-name="Layer 1">
    <path class="cls-1" d="m66.76,171.8c18.75,73.37,37.41,146.77,56.28,220.11,13.7,53.25,27.22,106.55,41.73,159.58,9.41,34.38,20.46,68.3,30.78,102.43,10.72,14.89,12.84,33.09,19,49.73,6.19,16.71,11.46,33.76,17.25,50.62,1.17,3.42,2.81,6.73-1.34,9.18-2.82,1.66-8.93-.45-10.64-4.2-3.57-7.85-6.91-15.83-9.86-23.93-16.03-44.02-32.32-87.96-47.7-132.21-9.32-26.82-17.1-54.16-25.7-81.24-4.07-12.83-8.49-25.54-12.6-38.36-1-3.13-1.3-6.48-2.1-9.68-.39-1.53-1.36-2.91-1.82-4.43-1.5-4.94-2.86-9.92-4.33-14.86-.49-1.65-1.16-3.26-1.75-4.88-1.61-4.43-3.25-8.85-4.81-13.29-.96-2.72-1.69-5.52-2.73-8.2-.59-1.52-1.97-2.8-2.35-4.34-2.44-9.89-4.65-19.84-7.07-29.74-.38-1.54-1.3-2.99-2.18-4.36-2.87-4.47-4.27-9.17-3.68-14.61.22-1.99-1.3-4.13-1.91-6.24-1.25-4.33-2.42-8.68-3.62-13.02-.47-1.69-.74-3.47-1.42-5.07-.77-1.82-2.46-3.39-2.79-5.24-1.34-7.59-4.55-14.97-5.62-22.17-1.99-13.42-7.48-25.76-9.46-39.11-2-13.47-5.98-26.63-8.51-40.03-4.07-21.53-7-43.3-11.62-64.7-5.49-25.49-12.43-50.66-18.39-76.05-4.53-19.34-11.97-37.65-19.01-56.11C4.57,36.31.54,25.13,1.04,13.06c.1-2.37,1.36-5.23,3.05-6.9C12.15-1.84,25.35-.43,30.29,9.63c5.56,11.32,9.92,23.24,14.43,35.05,16.94,44.34,33.57,88.8,50.6,133.11,14.16,36.84,28.79,73.5,43,110.33,2.04,5.3,4.14,10.71,5.92,15.91,2.57,7.47,5.75,14.83,7.83,22.4,1.42,5.17,1.22,10.68,5.4,14.81.22.21.35.61.35.92-.11,8.39,3.96,15.35,7.51,22.54.76,1.53.34,3.6.75,5.35.53,2.3,1.3,4.55,2.05,6.79,1.42,4.3,2.92,8.58,4.35,12.87.75,2.26,1.41,4.55,2.16,6.8,1.32,3.97,2.67,7.94,4.02,11.9.86,2.54,1.76,5.07,2.61,7.61,1.38,4.15,2.71,8.32,4.1,12.46.74,2.21,1.65,4.37,2.37,6.59,1.35,4.16,2.65,8.34,3.9,12.53.73,2.44,1.15,4.98,2.03,7.36,3.41,9.2,7.07,18.31,10.41,27.54,18.22,50.28,36.75,100.46,54.43,150.94,11.73,33.48,22.25,67.39,33.17,101.16.65,2.02.95,4.95-.05,6.51-1.26,1.96-4.24,4.3-6.1,4.01-2.42-.38-5.52-2.72-6.5-5-3.72-8.68-6.63-17.71-9.99-26.56-8.13-21.44-16.38-42.84-24.42-64.31-.82-2.18-.43-4.78-.77-7.17-.3-2.1-.55-4.28-1.32-6.22-8.61-21.59-17.33-43.14-26.01-64.7-19.91-49.45-40.25-98.74-59.6-148.41-13.45-34.53-26.09-69.41-38.09-104.47-14.26-41.65-27.38-83.68-41.21-125.48-2.44-7.38-5.96-14.39-8.99-21.58l-1.86.59Z"/>
  </g>
</svg>