<?xml version="1.0" encoding="UTF-8"?>
<svg id="Layer_2" data-name="Layer 2" xmlns="http://www.w3.org/2000/svg" viewBox="0 0 290.03 682.54">
  <defs>
    <style>
      .cls-1 {
        opacity: .5;
      }

      .cls-2 {
        fill: #fff;
        stroke: #00e7ff;
        stroke-miterlimit: 10;
        stroke-width: 4px;
      }
    </style>
  </defs>
  <g id="Layer_1-2" data-name="Layer 1">
    <g class="cls-1">
      <path class="cls-2" d="m174.76,288.87c-4.02-16.26-8.11-32.51-12.05-48.8-6.53-26.99-12.84-54.03-19.46-81-4.96-20.19-10.74-40.18-15.3-60.45-4.84-21.52-4.45-43.03,3.73-63.91,3.77-9.62,9.22-18.38,17.52-24.5C163.3-.18,178.54-.33,193.91,7.62c31,16.03,50.96,59.46,42.75,93.32-4.82,19.87-16.6,34.28-35.31,42.7-6.37,2.87-13.01,5.13-19.56,7.6-9.21,3.48-12.5,9.35-10.12,18.73,15.22,60.09,30.99,120.05,45.59,180.29,12.23,50.43,23.34,101.14,34.53,151.81,12.15,54.99,23.8,110.09,35.72,165.13.9,4.13.92,7.89-2.31,11.15-3.09,3.12-5.51,3.02-7.21-1.1-4.26-10.29-8.41-20.65-12.16-31.14-14.08-39.45-28.05-78.93-41.91-118.45-10.29-29.33-20.48-58.69-30.46-88.12-7.31-21.55-12.93-43.77-21.6-64.74-11.8-28.55-18.12-58.58-26.86-87.94-6.87-23.1-13.19-46.37-19.79-69.55-3.04-10.68-6.07-21.37-9.32-31.98-2.9-9.47-5.27-11.24-15.13-10.23-7.44.76-14.77,2.54-22.18,3.64-28.91,4.28-54.22-7.38-67.31-32.26C1.46,127.84-.24,107.74,4.64,87.2c2.59-10.91,6.14-21.3,13.35-30.32,12.39-15.53,29.38-20.72,48.04-13.74,17.13,6.41,29.6,18.66,38.97,33.77,5.56,8.96,10.31,18.78,13.39,28.84,15.15,49.35,29.59,98.93,44.38,148.39,3.5,11.72,7.39,23.32,11.1,34.98.3-.08.6-.17.9-.25ZM108.72,119.6c-1.32-26.91-13.28-46.79-35.49-59.86-20.05-11.8-40.14-5.66-51.39,14.7-8.61,15.57-10.43,32.24-6.71,49.42,4.3,19.91,15.68,34.41,34.85,41.97,14.8,5.84,28.46,3.54,41.16-6.35,13.48-10.5,15.92-25.35,17.58-39.88Zm27.85-52.88c0,18.12,4.05,32.99,11.15,45.8,9.83,17.71,22.57,23.72,42.38,19.89,14.32-2.77,25.31-10.18,31.34-23.71,14.34-32.15-3.73-71.42-32.46-85.51-15.43-7.57-29.98-3.86-40.31,9.87-8.55,11.36-11.99,24.37-12.09,33.66Z"/>
    </g>
  </g>
</svg>