<?xml version="1.0" encoding="UTF-8"?>
<svg id="Layer_2" data-name="Layer 2" xmlns="http://www.w3.org/2000/svg" viewBox="0 0 313.71 818.62">
  <defs>
    <style>
      .cls-1 {
        fill: none;
        stroke: #ff8bff;
        stroke-miterlimit: 10;
        stroke-width: 4px;
      }
    </style>
  </defs>
  <g id="Layer_1-2" data-name="Layer 1">
    <path id="MetzScissorsOutline" class="cls-1" d="m233.56,522.27c-.23-1.18-.41-2.37-.71-3.53-10.37-40.44-20.72-80.89-31.12-121.32-9.86-38.33-19.91-76.61-29.65-114.98-13.82-54.46-27.46-108.96-41.08-163.48-3.42-13.7-7.38-27.37-9.46-41.3-3.91-26.1,5.84-54.96,31.72-69.14,18.48-10.12,37.29-8.11,54.47,3.44,31.84,21.4,41.52,64.16,22.54,97.44-6.03,10.57-14.76,18.61-25.94,23.38-12.25,5.22-24.82,9.71-37.29,14.4-10.2,3.84-11.34,5.74-8.63,16.37,34.47,134.99,69.68,269.8,103.14,405.05,15.07,60.94,31.72,121.62,41.28,183.84,2.58,16.8,5.41,33.56,8.07,50.35.44,2.79,1.05,5.69.7,8.43-.26,1.98-1.76,5.12-3.09,5.33-1.89.3-5.04-1.06-6.04-2.69-2.58-4.23-4.72-8.85-6.26-13.56-11.68-35.71-23.74-71.31-34.54-107.28-8.69-28.94-15.82-58.35-23.61-87.56-11.48-43.02-22.94-86.04-34.38-129.07-5.08-19.11-10.11-38.23-15.1-57.36-11.07-42.43-22.15-84.86-33.16-127.31-10.31-39.74-20.57-79.5-30.76-119.27-1.96-7.65-3.83-9.62-11.76-8.91-7.78.7-15.44,2.64-23.22,3.37-11.39,1.07-23.07,3.4-34.19,1.91-22.91-3.08-37.99-17.92-46.8-38.52C-.45,109-.31,87.34,9.63,65.91c13.52-29.17,49.71-39.85,76.59-22.26,16.53,10.82,27.66,25.55,32.75,44.84,10.86,41.16,22.11,82.21,32.88,123.39,10.89,41.67,21.33,83.47,32.1,125.17,5.24,20.31,10.88,40.51,16.2,60.8,6.82,26.05,13.54,52.13,20.24,78.21,3.64,14.17,7.12,28.37,10.72,42.55.34,1.35,1.05,2.61,1.59,3.92.29-.09.58-.18.87-.27ZM108.42,110.12c.18-25.36-8.46-44.33-28.39-56.97-21.31-13.51-45.23-8.16-59.06,12.45-18.72,27.91-7.24,72.84,22.56,88.25,18.03,9.32,38.78,6.24,51.68-8.19,9.48-10.61,13.48-23.42,13.22-35.54Zm120.44-34.93c-1.26-23.63-9.9-41.45-28.28-54.09-19.47-13.39-43.49-9.43-57.52,9.56-18.67,25.27-13.09,65.71,11.75,85.16,15.48,12.12,35.16,14.3,50.85,4.66,17.36-10.67,22.59-27.78,23.2-45.29Z"/>
  </g>
</svg>