<?xml version="1.0" encoding="UTF-8"?>
<svg id="Layer_2" data-name="Layer 2" xmlns="http://www.w3.org/2000/svg" viewBox="0 0 404 899.9">
  <defs>
    <style>
      .cls-1 {
        fill: none;
        stroke: #f800ff;
        stroke-miterlimit: 10;
        stroke-width: 4px;
      }
    </style>
  </defs>
  <g id="Layer_1-2" data-name="Layer 1">
    <path class="cls-1" d="m318.51,600.73c-1.9-9.74-3.96-19.45-5.65-29.23-5.01-29.01-9.88-58.04-14.8-87.07-3.91-23.1-8.03-46.17-11.64-69.32-4.97-31.85-9.47-63.77-14.34-95.64-4.22-27.59-8.62-55.15-13.09-82.7-.53-3.24-1.68-6.47-3.07-9.47-2.17-4.69-6.83-5.01-11.14-5.02-3.46,0-6.98.64-10.36,1.46-3.99.97-6.11-.12-7.51-4.14-3.89-11.21-3.58-12,7.96-14.71,3.89-.92,7.72-2.25,11.66-2.73,4.4-.54,5.49-2.85,5.03-6.74-2.6-21.78-5.01-43.59-7.82-65.35-2.79-21.68-5.3-43.24-.54-65.04,5.91-27.03,33.43-57.43,61.92-62.11,23.15-3.8,42.05,3.86,56.16,21.8,16.7,21.25,23.5,45.72,18.89,72.76-3.82,22.41-16.65,39.2-35.05,51.38-12.02,7.96-25.44,13.77-38.07,20.83-5.78,3.23-11.61,6.62-16.69,10.81-11.56,9.55-14.04,22.92-12.53,36.77,3.28,29.97,6.66,59.96,11.31,89.74,13.13,84.14,26.54,168.23,40.69,252.2,4.03,23.93,10.59,47.46,16.64,71.01,14.21,55.33,29.98,110.3,42.76,165.95,6.76,29.43,8.69,59.99,12.52,90.07,1.03,8.08-1.14,10.77-8.51,11.57-2.31.25-5.41-.66-7.09-2.2-2.49-2.29-4.46-5.41-5.92-8.51-10.13-21.48-20.12-43.03-30.03-64.61-1.3-2.83-2.95-6.14-2.57-8.97,1-7.45-1.58-13.94-3.52-20.8-8.5-30.06-16.56-60.25-24.94-90.34-4.41-15.84-9.48-31.51-13.7-47.4-4.9-18.45-8.46-37.29-13.96-55.55-7.99-26.56-16.73-52.91-25.97-79.06-13.01-36.84-26.71-73.43-40.22-110.09-11.43-31.03-23.17-61.94-34.46-93.02-5.27-14.51-9.4-29.45-14.81-43.9-3.89-10.39-8.34-20.71-13.8-30.35-8.82-15.57-22.78-23.5-40.82-23-11.81.33-23.59,1.83-35.41,2.24-17.01.6-33.67-1.04-48.64-10.34-15.99-9.93-26.45-23.96-31.46-42.11-5.23-18.93-5.73-37.73,1.57-56.27,15.56-39.51,59.6-49.35,91.3-30.9,17.63,10.26,29.26,25.61,37.3,43.77,9.44,21.32,18,43.04,27.23,64.46,2.89,6.71,6.68,13.03,10.1,19.5,2.47,4.68,6.12,5.87,11.26,4.44,5.27-1.47,10.76-2.17,16.13-3.29,3.63-.76,5.8.49,6.46,4.23.29,1.64.72,3.25,1.15,4.86.84,3.19-.32,5.07-3.53,5.96-3.69,1.02-7.4,2.05-10.97,3.42-8.02,3.08-9.4,5.51-6.74,13.71,10.32,31.86,20.06,63.94,31.45,95.42,24.21,66.91,49.2,133.54,74.14,200.18,7.74,20.68,16.38,41.03,24.6,61.54.38-.05.76-.1,1.14-.14Zm43.94-512.12c.19-13.58-1.75-24.73-5.93-35.63-10.52-27.39-39.52-40.35-64.47-28.35-19.75,9.5-30.78,25.95-33.89,47.02-3.19,21.62-.64,43.23,5.28,64.25,4.42,15.7,18.03,23.23,33.79,18.87,8.28-2.29,16.49-5.21,24.31-8.77,25.39-11.56,42.22-29.3,40.91-57.4ZM81.74,205.8c8.88-.2,21.19-2.09,32.99-6.49,12.67-4.73,21.86-16.95,18.77-31.75-3.66-17.54-11.05-33.35-20.36-48.4-7.63-12.33-18.22-21.04-32.19-25.41-22.82-7.14-46.87,2.37-57.23,22.64-6.47,12.65-6.82,25.77-3.71,39.4,7.5,32.81,27.28,49.99,61.74,50.01Z"/>
  </g>
</svg>