<?xml version="1.0" encoding="UTF-8"?>
<svg id="Layer_2" data-name="Layer 2" xmlns="http://www.w3.org/2000/svg" viewBox="0 0 273.93 603.22">
  <defs>
    <style>
      .cls-1 {
        fill: none;
        stroke: #000;
        stroke-miterlimit: 10;
        stroke-width: 2px;
      }
    </style>
  </defs>
  <g id="Layer_1-2" data-name="Layer 1">
    <path class="cls-1" d="m71.03,155.48c.3-.07.59-.14.89-.21.75,1.47,1.55,2.92,2.25,4.42,13.12,28.18,26.03,56.46,39.41,84.52,10.23,21.45,21.32,42.49,31.5,63.97,8.19,17.27,15.16,35.12,23.43,52.35,18.19,37.91,37.18,75.44,55.25,113.41,14.95,31.43,29.05,63.26,43.52,94.91,1.13,2.46-.29,6.02-3.79,7.91-.58.31-1.11,2.02-.8,2.41.74.96,1.1,2.77,2.16,2.38,4.51-1.65,9.26-3.72,7.83-7.97-18.1-53.68-34.71-107.93-54.93-160.81-13.88-36.3-32.03-71.07-49.63-105.84-32.22-63.65-64.56-127.24-91.43-193.38-11.03-27.16-20.17-55.07-30.79-82.4-3.29-8.45-8.42-16.23-13.11-24.07C29.64,1.84,24.83-.33,18.64,1.82c-3.14,1.09-6.32,2.03-9.46,3.11C1.93,7.42.46,9.77,1.15,17.52c1.56,17.41,9.14,32.91,15.58,48.74,4.82,11.86,11.01,23.22,15.09,35.32,14.6,43.31,25.91,87.58,37.09,131.87,5.53,21.9,11.7,43.64,17.02,65.59,5.41,22.29,9.82,44.83,15.22,67.13,8.19,33.81,19.38,66.61,33.78,98.33,11.36,25,22.18,50.24,33.48,75.26,8.43,18.68,17.23,37.19,25.92,55.75,1.05,2.25,2.16,4.62,3.82,6.39.83.89,6.17-.37,7.65-.56.83-.11,1.87-1.28,2.13-2.18.18-.62-.72-2.21-1.3-2.3-5.82-.83-9.53-4.84-10.97-8.7-10-26.86-20.36-53.61-29.23-80.85-8.55-26.28-15.29-53.15-23.11-79.68-12.76-43.31-26.68-86.3-38.37-129.9-11.64-43.42-21.14-87.42-31.55-131.17-.88-3.68-1.59-7.4-2.38-11.1Z"/>
  </g>
</svg>