<?xml version="1.0" encoding="UTF-8"?>
<svg id="Layer_2" data-name="Layer 2" xmlns="http://www.w3.org/2000/svg" viewBox="0 0 289.24 673.86">
  <defs>
    <style>
      .cls-1 {
        fill: none;
        stroke: #ff9100;
        stroke-miterlimit: 10;
        stroke-width: 4px;
      }
    </style>
  </defs>
  <g id="Layer_1-2" data-name="Layer 1">
    <path class="cls-1" d="m176.93,293.53c-4.45-17.88-8.88-35.76-13.36-53.63-8.36-33.34-16.67-66.7-25.17-100.01-3.58-14.02-7.87-27.86-11.29-41.92-5.55-22.87-4.66-45.4,5.95-66.8,7.65-15.44,18.61-27.23,37.11-29.01,8.19-.79,15.9,1.26,23.24,4.71,30.1,14.17,51.18,52.47,46.79,85.52-2.79,20.98-13.45,36.75-32.85,45.82-7.67,3.59-15.77,6.31-23.77,9.14-11.78,4.18-13.82,7.38-10.76,19.33,13.82,53.92,27.93,107.76,41.58,161.73,6.44,25.46,11.81,51.2,18.11,76.7,8.86,35.88,18.66,71.53,27.08,107.5,8.97,38.28,16.95,76.79,25.01,115.26,1.63,7.78,1.74,15.87,2.53,23.83.61,6.13-1.8,10.67-7.24,13.62-2.93,1.59-5.74,3.4-8.73,4.85-5.54,2.68-6.92,2.57-9.05-3.32-4.11-11.39-7.56-23.03-11.03-34.64-10.92-36.47-21.82-72.96-32.54-109.49-10.44-35.56-20.38-71.28-31.1-106.76-5.47-18.12-12.39-35.79-18.23-53.81-5.48-16.91-10.44-33.99-15.53-51.03-13.43-44.88-26.81-89.78-40.21-134.67-1.51-5.06-4.6-8.04-10.16-7.65-3.98.27-7.98.44-11.91,1.04-6.42.98-12.75,2.57-19.19,3.38-28.07,3.54-51.59-9.67-62.71-35.82C-1.35,111.87-.3,86.24,11.79,61.43c10.66-21.89,31.55-29.68,54.18-20.51,22.98,9.32,38,27.14,47.05,49.34,6.75,16.56,10.62,34.3,15.92,51.46,6.77,21.92,13.74,43.79,20.52,65.71,8.4,27.14,16.7,54.31,25.05,81.46.49,1.58,1.06,3.14,1.59,4.71l.83-.08ZM12.67,104.81c.22,14.24,3.9,28.45,13.73,40.37,11.38,13.8,25.93,20.98,44.06,17.27,22.92-4.7,35.23-24.35,35.82-46.29.76-27.99-12.79-48.33-37.55-60.81-19.37-9.77-38-3.38-48.28,15.75-5.48,10.19-7.7,21.2-7.79,33.72Zm174.02,25.03c21.34-.18,37.22-13.87,42.14-35.53,5.71-25.15-10.61-56.57-32.53-69.5-18.97-11.19-37.7-7.43-50.25,10.58-14.4,20.66-14.54,52.17.18,72.58,9.86,13.66,22.9,22.13,40.46,21.87Z"/>
  </g>
</svg>