<?xml version="1.0" encoding="UTF-8"?>
<svg id="Layer_2" data-name="Layer 2" xmlns="http://www.w3.org/2000/svg" viewBox="0 0 211.28 845.52">
  <defs>
    <style>
      .cls-1 {
        fill: none;
        stroke: #ffe600;
        stroke-miterlimit: 10;
        stroke-width: 3px;
      }
    </style>
  </defs>
  <g id="Layer_1-2" data-name="Layer 1">
    <path id="ArmyNavyOutline" class="cls-1" d="m9.69,55.48c-4.93.9-8.54-.46-8.16-5.82.92-13.14,3.12-25.98,14.42-34.79,3.36-2.62,7.08-5.36,11.08-6.48C44.05,3.6,61.57,1.22,79.2,1.53c26.1.45,38.01,18.3,41.33,37.26,2.75,15.7,4.01,31.66,5.98,47.5,4.4,35.32,8.73,70.66,13.29,105.96,4.86,37.61,9.89,75.2,14.97,112.79,4.81,35.61,10.05,71.16,14.58,106.8,6.04,47.52,11.63,95.09,17.33,142.65,3.91,32.7,8.02,65.39,11.41,98.15,4.14,40.03,7.75,80.12,11.32,120.21,1.17,13.15-.17,25.96-8.61,37.02-4.93,6.46-10.64,11.54-18.57,14.42-21.41,7.76-43.66,11.52-66.02,14.84-12.15,1.81-24.4,2.92-36.59,4.53-15.12,1.99-26.55-4.08-35.12-16.06-2.88-4.02-5.22-8.53-7.11-13.1-.61-1.47.45-4.49,1.76-5.69,2.39-2.19,4.95-1.17,6.57,1.62,1.83,3.17,3.4,6.5,5.41,9.55,4.78,7.27,11.75,11.33,20.32,10.04,30.22-4.57,60.36-9.61,90.5-14.66,4.22-.71,8.3-2.38,12.38-3.81,12.87-4.5,20.98-15.12,20.19-28.8-.87-14.9-2.87-29.76-4.92-44.56-5.54-39.84-11.44-79.64-17.06-119.47-5.63-39.83-11.3-79.66-16.56-119.54-4.65-35.26-8.82-70.58-13.11-105.88-3.16-26.06-6.32-52.13-9.2-78.23-3.1-28.08-6.09-56.17-8.76-84.29-4.05-42.67-7.72-85.38-11.68-128.07-1.93-20.84-4.12-41.65-6.26-62.47-.81-7.94-4.41-14.57-10.06-20.1-5.46-5.34-11.92-8.73-19.7-7.83-13.53,1.56-27.03,3.43-40.51,5.39-10.23,1.49-16.66,8.01-20.36,17.14-2.59,6.42-4.29,13.2-6.65,20.65Z"/>
  </g>
</svg>