<?xml version="1.0" encoding="UTF-8"?>
<svg id="Layer_2" data-name="Layer 2" xmlns="http://www.w3.org/2000/svg" viewBox="0 0 35.3 176.95">
  <defs>
    <style>
      .cls-1 {
        fill: none;
        stroke: #ffe600;
        stroke-miterlimit: 10;
        stroke-width: 3px;
      }
    </style>
  </defs>
  <g id="Layer_1-2" data-name="Layer 1">
    <g id="No15Blade">
      <path class="cls-1" d="m8.19,175.01c-4.7-6.6-5.66-12.25-4.54-19.47,1.86-12.09,1.68-24.49,2.33-36.76.05-.99.29-2.26-.2-2.95-7.88-10.97-2.81-22.92-.92-33.65C9.39,56.38,16.31,30.99,23.97,5.05c1.16,3.55,2.74,7.03,3.42,10.67,6.14,32.87,7.81,65.95,5.27,99.33-1.03,13.58-.79,27.28-.78,40.92,0,4.49-1.14,7.51-5.43,9.51-5.98,2.79-11.73,6.08-18.26,9.52Zm13.12-101.11c-.51-.05-1.01-.09-1.52-.14-.39,2.04-1.03,4.07-1.13,6.12-.4,8.25-.53,16.52-.95,24.77-.58,11.48-1.47,22.94-1.87,34.43-.06,1.81,1.79,3.69,2.76,5.54,1.14-1.68,2.43-3.27,3.37-5.06.41-.78.09-1.95.09-2.94-.05-16.5-.06-32.99-.18-49.49-.03-4.41-.37-8.82-.56-13.23Z"/>
      <path class="cls-1" d="m21.31,73.9c.19,4.41.53,8.82.56,13.23.11,16.5.13,32.99.18,49.49,0,.99.32,2.16-.09,2.94-.93,1.79-2.22,3.39-3.37,5.06-.97-1.85-2.82-3.73-2.76-5.54.4-11.48,1.29-22.95,1.87-34.43.42-8.25.55-16.52.95-24.77.1-2.05.74-4.08,1.13-6.12.51.05,1.01.09,1.52.14Z"/>
    </g>
  </g>
</svg>