<?xml version="1.0" encoding="UTF-8"?>
<svg id="Layer_2" data-name="Layer 2" xmlns="http://www.w3.org/2000/svg" viewBox="0 0 425.65 382.15">
  <defs>
    <style>
      .cls-1 {
        fill: none;
        stroke: #ffe600;
        stroke-miterlimit: 10;
        stroke-width: 3px;
      }
    </style>
  </defs>
  <g id="Layer_1-2" data-name="Layer 1">
    <g id="BTC_Outline">
      <path class="cls-1" d="m424.04,51.3c-7.39,3.52-14.16,6.88-21.04,10-46.78,21.18-84.99,54.26-122.37,88.42-14.98,13.68-29.53,27.83-44.09,41.96-7.85,7.61-15.45,15.49-22.88,23.52-2.9,3.14-5.32,6.84-7.42,10.58-6.24,11.06-4.97,20.04,4.38,28.67,5.12,4.72,11.11,8.48,16.36,13.08,17.43,15.24,23.34,34.11,17.56,56.66-3.5,13.68-10.79,25.02-21.07,34.41-15.28,13.95-33.08,21.73-54.1,22.06-38.02.6-59.78-32.72-49.78-66.4,5.45-18.33,17.46-31.81,31.44-44.03,7.24-6.33,14.55-12.66,21.15-19.64,10.04-10.62,9.5-22.27.2-33.6-6.34-7.72-13.56-13.35-23.24-16.24-4.52-1.35-8.54-1.72-12.38.78-9.44,6.16-18.73,12.54-28.05,18.88-18.22,12.41-37.55,21.26-60.37,19.35-34.74-2.9-55.66-33.81-43.23-69.4,11.39-32.61,47.69-55.13,82.06-50.77,13.68,1.74,25.46,7.9,33.8,19.16,4.32,5.84,7.44,12.55,11.31,18.74,3.33,5.32,6.4,10.99,10.62,15.54,4.98,5.37,11.51,7.86,19.04,4.84,6.45-2.59,13.44-4.29,19.26-7.89,25.73-15.95,50.99-32.64,76.67-48.67,23.24-14.51,43.82-32.46,65.23-49.35,10.91-8.6,22.72-16.21,32.78-25.7,9.1-8.59,16.57-18.96,24.28-28.92,1.46-1.88.44-5.54.98-8.3.48-2.42,1.54-4.73,2.34-7.09,2.31.86,4.77,1.44,6.88,2.63,4.19,2.36,5.59,6.15,5.27,10.95-.81,12.15,8.12,18.97,15.21,26.68.89.96,3.1,1.06,4.66.98,5.42-.27,7.89,2.48,8.53,8.11Z"/>
      <path class="cls-1" d="m55.46,230.08c-31.77.14-50.5-26.46-39.89-56.45,9.01-25.47,41.06-46.48,64.71-44.86,26.63,1.83,48.48,28.2,41.81,53.98-1.74,6.74-6.33,13.1-10.76,18.73-13.38,17-36.55,28.51-55.87,28.6Z"/>
      <path class="cls-1" d="m127.71,329.9c1.34-5.44,2.03-11.15,4.15-16.26,9.54-22.98,26.1-38.88,49.65-47.12,9.98-3.49,19.74-1.94,28.77,3.34,27.58,16.13,32.66,47.96,11.76,74.49-11.83,15.02-27.38,24.24-46.44,26.26-25.47,2.71-47.13-13.6-47.89-40.72Z"/>
      <path class="cls-1" d="m282.41,126.15c-17.94,17.56-34.83,34.09-51.71,50.62-5.23,5.12-10.11,10.66-15.75,15.29-5.32,4.37-11.15,8.33-17.26,11.48-5.64,2.91-11.43.93-14.51-4.46-1.08-1.88-1.21-5.59-.04-7.23,3.23-4.54,6.71-9.46,11.27-12.4,27.95-18.05,56.23-35.59,84.42-53.26.45-.28,1.22-.03,3.56-.03Z"/>
      <path class="cls-1" d="m406.73,45.65c-7.5,3.35-13.75,6.27-20.09,8.95-6.32,2.67-12.74,5.12-20.04,6.42,8.54-10.53,17.08-21.06,26.25-32.37,4.23,5.18,8.5,10.42,13.87,17Z"/>
    </g>
  </g>
</svg>