<?xml version="1.0" encoding="UTF-8"?>
<svg id="Layer_2" data-name="Layer 2" xmlns="http://www.w3.org/2000/svg" viewBox="0 0 288.71 582.29">
  <defs>
    <style>
      .cls-1 {
        fill: none;
        stroke: #ffe600;
        stroke-miterlimit: 10;
        stroke-width: 3px;
      }
    </style>
  </defs>
  <g id="Layer_1-2" data-name="Layer 1">
    <g id="CrileHemoOutline">
      <path class="cls-1" d="m17.25,1.72c8.42-1.32,10.42,3.56,12.04,8.24,8.14,23.58,16.82,47.01,23.96,70.9,18.46,61.81,35.4,124.09,54.57,185.68,10.96,35.21,24.86,69.51,37.96,104.03,3.03,7.99,7.67,15.52,12.45,22.68,9.63,14.44,21.07,18.14,37.98,14.06,11.59-2.8,23.27-5.7,35.08-6.96,16.63-1.77,29.69,6.05,39.65,18.87,13.57,17.46,18.35,37.69,15.49,59.28-2.4,18.12-12.56,32.12-27.92,41.85-14.46,9.16-36.95,5.92-49.64-6.92-14.74-14.92-24.55-33.03-32.44-52.24-4.04-9.84-7.67-19.86-11.58-29.75-1.1-2.77-2.42-5.48-3.86-8.1-5.98-10.84-7.91-11.21-19.51-8.02-11.32,3.11-22.92,5.22-34.18,7.72-4.73,8.82-4.99,17.86-4.64,26.78.62,15.62,1.93,31.2,2.89,46.81.98,16.04.47,31.95-4.63,47.4-4.34,13.16-12.6,23.34-24.03,30.92-15.76,10.46-36.35,6.15-50.59-7.04-20.33-18.84-27.83-43.66-23.71-70.9,3.49-23.05,18.65-37.63,39.65-46.29,6.42-2.65,13.25-4.34,19.95-6.29,18.89-5.5,26.67-15.57,27.56-35.42.81-18.07-1.34-35.89-4.31-53.62-6.05-36.06-11.39-72.28-18.71-108.08-6.99-34.18-16.85-67.77-24.11-101.9-8.93-41.96-16.56-84.2-24.5-126.36-1.03-5.44-.6-11.15-.86-17.31Z"/>
      <path class="cls-1" d="m95.16,508.18c-1.28,9.28-2.2,18.52-3.97,27.6-.93,4.8-2.95,9.51-5.16,13.92-13.68,27.25-40.63,21.94-54.32,7.41-10.69-11.35-14.97-25.66-16.34-40.81-.77-8.57-.39-17.07,2.86-25.46,5.69-14.71,16.78-23.6,30.48-29.7,6.01-2.68,12.5-4.46,18.94-5.95,10.21-2.38,15.64.32,19.74,10.15,2.27,5.44,3.71,11.34,4.68,17.18,1.42,8.47,2.09,17.07,3.09,25.67Z"/>
      <path class="cls-1" d="m273.31,466.88c-.41,14.94-5.71,27.8-16.8,37.99-11.42,10.49-27.75,11.43-38.74.59-16.79-16.57-29.55-35.92-33.03-59.99-2.31-15.98,2.74-23.49,18.41-27.93,11.2-3.18,22.48-5.93,34.31-3.57,13.25,2.64,22.77,9.76,28.61,22.17,4.61,9.8,7.44,19.85,7.24,30.75Z"/>
      <path class="cls-1" d="m142.48,397.87c-12.86,2.97-24.15,5.57-36.56,8.44-9.57-50.01-15.35-99.05-19.59-148.49,19.65,45.74,39.23,91.45,56.15,140.05Z"/>
    </g>
  </g>
</svg>