<?xml version="1.0" encoding="UTF-8"?>
<svg id="Layer_2" data-name="Layer 2" xmlns="http://www.w3.org/2000/svg" viewBox="0 0 287.24 566.73">
  <defs>
    <style>
      .cls-1 {
        fill: none;
        stroke: #ffe600;
        stroke-miterlimit: 10;
        stroke-width: 3px;
      }
    </style>
  </defs>
  <g id="Layer_1-2" data-name="Layer 1">
    <g id="KellyHemoOutline">
      <path class="cls-1" d="m149.86,407.71c-15.48,3.77-29.8,7.26-45.21,11.01-.85,5.41-2.59,10.93-2.4,16.38.7,20.25,1.91,40.48,3.16,60.7.79,12.79-.54,25.24-4.99,37.28-4.85,13.14-13.94,22.7-26.34,28.7-17.17,8.31-45.2,1.03-57.75-15.32-21.8-28.36-24.68-82.73,26.89-101.96,6.21-2.32,12.68-3.94,19.06-5.8,17.57-5.11,25.56-15.68,26.45-34.1.9-18.76-1.78-37.21-4.78-55.55-5.35-32.79-10.69-65.62-17.51-98.13-6.35-30.23-15.41-59.88-21.87-90.08C34.28,112.75,25.12,64.41,15.62,16.15c-.69-3.52-.86-7.34-.28-10.85.66-3.98,4.77-5.1,7.5-2.07,2.16,2.39,3.86,5.44,5,8.48,16.85,45.21,30.65,91.38,43.71,137.8,8.46,30.07,17.98,59.84,26.84,89.81,11.79,39.9,26.29,78.85,42.01,117.32,4.5,11.01,10.11,21.73,16.49,31.77,9.69,15.26,20.94,18.81,38.59,14.53,9.99-2.42,20.04-4.75,30.19-6.26,19.99-2.97,34.99,5.99,46.11,21.69,12.05,17.04,16.16,36.39,12.86,56.93-3.16,19.67-15.83,32.35-33.86,38.42-17.63,5.93-34.15,1.83-47.63-11.74-13.37-13.47-22.04-29.88-29.05-47.26-3.48-8.63-6.44-17.48-10.04-26.05-3.34-7.95-6.98-15.85-14.21-20.96Z"/>
      <path class="cls-1" d="m15.12,498.91c.78-18,10.8-32.63,29.03-41.48,7.1-3.45,14.71-6.08,22.35-8.15,9.89-2.67,15.38-.44,19.3,9.19,9.43,23.17,11.55,47.19,3.2,71.07-4.44,12.69-14.11,21.28-27.98,22.61-14.04,1.35-26.31-3.17-34.98-15-7.75-10.59-10.73-22.71-10.92-38.24Z"/>
      <path class="cls-1" d="m271.55,461.78c.19,14.68-5.12,26.66-16.98,35.45-13.47,9.98-31.13,9.19-42.67-3.03-14.08-14.92-24.94-31.91-28.64-52.68-2.75-15.45,2.39-24.13,17.56-28.29,6.39-1.75,12.91-3.65,19.45-4.05,27.39-1.63,43.87,12.54,49.97,39.74.94,4.17.89,8.57,1.3,12.87Z"/>
      <path class="cls-1" d="m85.34,257.81c19.67,43.85,38.79,87.57,54.16,133.16-10.67,6.83-22.02,7.88-34.55,9.62-9.31-47.44-15.55-94.97-19.61-142.78Z"/>
    </g>
  </g>
</svg>