<?xml version="1.0" encoding="UTF-8"?>
<svg id="Layer_2" data-name="Layer 2" xmlns="http://www.w3.org/2000/svg" viewBox="0 0 286.04 397.93">
  <defs>
    <style>
      .cls-1 {
        fill: none;
        stroke: #ffe600;
        stroke-miterlimit: 10;
        stroke-width: 3px;
      }
    </style>
  </defs>
  <g id="Layer_1-2" data-name="Layer 1">
    <g id="MosqOutline">
      <path class="cls-1" d="m159.99,270.8h-32.94c-4.4,5.44-7.28,11.69-7.85,18.81-1.15,14.24-1.76,28.52-3.21,42.73-.78,7.56-2.22,15.18-4.46,22.42-11.03,35.64-52.05,52.26-84.84,34.48-8.05-4.37-14.41-10.77-18.35-19.16-19.68-41.9,5.37-81.79,46.17-88.01,8.84-1.35,17.91-2.5,26.79-2.03,17.68.94,28.25-10.01,32.09-24.21,3.9-14.42,7.2-29.03,10.31-43.65,5.76-27.08,6.83-54.61,8.25-82.19,2-38.84,4.5-77.63,4.16-116.54-.03-3.75,1.39-7.51,2.22-11.68,6.55,1.38,8.56,5.53,9.38,10.13,2.86,16.02,6.71,32,7.83,48.15,2.76,39.81,3.47,79.76,6.45,119.54,1.93,25.78,3.62,51.81,11.56,76.77,4.74,14.9,14.35,24.77,32.44,23.56,5.94-.4,11.98.08,17.92.68,10.63,1.06,20.92,3.3,30.51,8.47,42.36,22.85,36.02,79.76,5.78,98.13-13.44,8.16-27.6,10.68-43.02,6.54-24.61-6.61-40.09-21.91-44.19-47.18-2.49-15.36-3.21-31.01-4.72-46.53-.99-10.16-.5-20.75-8.28-29.25Z"/>
      <path class="cls-1" d="m104.57,323.97c.34,18.07-4.04,31.78-13.37,43.75-10.75,13.78-30.58,19.6-46.56,15-26.92-7.75-38.55-42.54-22.35-67.14,5.67-8.61,13.12-14.73,22.75-18.61,13.36-5.37,27.15-6.34,41.17-4.72,10.09,1.16,15.29,6.59,16.8,16.72.88,5.91,1.25,11.9,1.56,15Z"/>
      <path class="cls-1" d="m180.78,326.4c1.24-6.82,2.3-13.69,3.77-20.46,1.66-7.65,6.79-12.55,14.31-13.41,20.15-2.31,39.99-2.04,56.52,12.43,13.43,11.76,18.2,26.68,14.7,43.97-3.54,17.49-14.04,29.03-31.49,33.65-15.91,4.21-35.1-2.97-45.08-16.61-7.49-10.23-11.87-24.73-12.73-39.58Z"/>
      <path class="cls-1" d="m145.51,146.47c5.3,35.27,10.24,70.39,10.42,106.75h-24.84c.38-7.29.26-14.5,1.22-21.57,3.62-26.62,7.58-53.19,11.49-79.76.27-1.85,1.12-3.61,1.7-5.42Z"/>
    </g>
  </g>
</svg>