<?xml version="1.0" encoding="UTF-8"?>
<svg id="Layer_2" data-name="Layer 2" xmlns="http://www.w3.org/2000/svg" viewBox="0 0 119.13 808.8">
  <defs>
    <style>
      .cls-1 {
        fill: none;
        stroke: #ffe600;
        stroke-miterlimit: 10;
        stroke-width: 3px;
      }
    </style>
  </defs>
  <g id="Layer_1-2" data-name="Layer 1">
    <path id="ParkerOutline" class="cls-1" d="m57.73,772.98c11.02-5.69,14.5-14.71,15.49-24.96,1.08-11.24,1.9-22.52,2.34-33.81,1.47-37.86,3.74-75.73,3.74-113.59,0-36.53-2.59-73.05-3.73-109.59-1.29-41.2-3.25-82.42-3.01-123.63.21-37.85,3.21-75.67,4.5-113.53,1.04-30.57,2.4-61.18,1.77-91.74-.79-38.19-3.32-76.34-5.47-114.49-.6-10.58-1.55-21.46-10.87-28.95-1.02-.82-2.15-1.49-3.59-2.49-6.91,4.72-11.5,10.98-13.93,18.77-2.57,8.25-4.73,16.62-7.27,24.88-1.17,3.79-2.73,7.48-4.32,11.13-1.98,4.55-4.86,7.25-10.56,7.31-5.93.06-9.19-2.24-11.66-7.27-5.25-10.66-7.24-21.88-7.85-33.7C2.51,21.81,19.26,4.03,32.67,2.8c16.55-1.51,33.3-2.39,49.65,1.34,20.52,4.68,30.88,17.2,31.31,38.15.36,17.28-.24,34.61-1.04,51.88-2.59,55.89-2.09,111.79-.49,167.68,1.28,44.9,4.18,89.75,5.38,134.65.6,22.24-.73,44.56-1.66,66.82-2.43,58.01-5.11,116.01-3.84,174.08.71,32.59,2.29,65.16,3.32,97.75.36,11.3.11,22.62.38,33.92.57,24.16-22.74,42.25-46.99,37.46-6.75-1.33-13.43-3.86-19.65-6.84-8.68-4.16-16.91-9.25-25.31-13.99-17.5-9.86-24.72-24.19-21.46-44.14,1.06-6.45,2.95-13.09,5.99-18.83,4.49-8.46,12.68-9.32,20-3.2,1.01.85,1.71,2.36,2.83,2.75,19.44,6.75,21.52,24.01,24.74,40.6.6,3.11,1.18,6.23,1.91,10.11Z"/>
  </g>
</svg>