<?xml version="1.0" encoding="UTF-8"?>
<svg id="Layer_2" data-name="Layer 2" xmlns="http://www.w3.org/2000/svg" viewBox="0 0 356.47 704.12">
  <defs>
    <style>
      .cls-1 {
        fill: none;
        stroke: #ffe600;
        stroke-miterlimit: 10;
        stroke-width: 3px;
      }
    </style>
  </defs>
  <g id="Layer_1-2" data-name="Layer 1">
    <g id="RochesterCarmaltOutline">
      <path class="cls-1" d="m122.54,584.68c1.41,13.89,2.91,27.77,4.19,41.68,1.16,12.68.13,25.21-3.98,37.3-7.1,20.88-28.79,40.81-56.72,38.82-9.51-.68-18.28-4.18-25.33-10.57-20.74-18.77-30.78-62.1-20.33-88,8.48-21.02,24.78-32.23,46.9-35.43,5.26-.76,10.57-1.12,15.82-1.93,17.51-2.67,30.74-17.31,30.33-35.22-.29-12.9-1.84-25.86-3.92-38.62-7.8-47.91-16.06-95.74-24.1-143.61-2.64-15.74-4.7-31.59-7.88-47.21-2.02-9.93-5.85-19.48-8.45-29.3C46.9,189.04,24.83,105.45,2.83,21.86c-.92-3.49-1.25-7.21-1.32-10.83-.11-5.04,2.94-7.77,7.61-9.12,4.7-1.37,7.96.93,10.13,4.43,2.07,3.34,3.44,7.19,4.73,10.95,18.07,52.5,36.11,105.01,54.09,157.54,11.4,33.3,21.91,66.93,34.2,99.89,18.59,49.84,37.79,99.46,57.91,148.7,10.55,25.81,23.52,50.64,35.54,75.85,6.5,13.64,18.17,18.82,32.55,18.53,3.83-.08,7.81-1.49,11.41-3.03,6.1-2.61,12.05-5.62,17.89-8.8,11.57-6.31,23.97-7.56,36.78-6.37,8.5.79,16.44,3.72,22.57,9.56,20.68,19.73,30.84,43.66,27.41,72.59-2.84,23.92-27.34,39.35-44.64,40.72-21.47,1.71-39.47-5.8-52.45-22.88-7.39-9.72-12.92-20.87-19.04-31.51-4.31-7.48-7.8-15.46-12.4-22.74-5.71-9.03-9.17-9.89-19.12-6.46-5.66,1.95-11.49,3.55-16.87,6.09-15.71,7.4-32.81,9.48-49.48,12.87-12.52,2.55-15.06,3.89-17.29,18.84-.39,2.6-.06,5.31-.06,7.98-.14.01-.28.02-.43.03Z"/>
      <path class="cls-1" d="m134.97,542.67c-17.58-79.05-28.69-157.76-36.11-237.75,12.56,15.23,91.67,197.85,95.29,220.09-18.87,7.15-38.97,10.65-59.18,17.67Z"/>
      <path class="cls-1" d="m115.83,628.42c.05,11.35-.98,22.55-5.38,33.17-7.6,18.34-23.6,29.51-41.26,29.12-8.79-.2-16.05-3.49-22.17-9.7-20.25-20.55-23.7-60.27-7.24-83.99,8.94-12.89,30.45-20.45,45.37-15.96,18.31,5.51,29.62,19.25,30.65,37.4.19,3.31.03,6.64.03,9.96Z"/>
      <path class="cls-1" d="m295.36,510.53c12.52-.55,22.16,5.17,29.65,14.18,9.66,11.61,17,24.69,18.38,40.14,1.84,20.6-7.68,40.33-30.66,46.22-14.83,3.8-28.03-.93-38.88-10.31-7.63-6.6-13.71-15.31-19.43-23.78-16.4-24.3-1.19-57.28,27.21-64.35,4.47-1.11,9.14-1.42,13.72-2.09Z"/>
    </g>
  </g>
</svg>