<?xml version="1.0" encoding="UTF-8"?>
<svg id="Layer_2" data-name="Layer 2" xmlns="http://www.w3.org/2000/svg" viewBox="0 0 73 612.63">
  <defs>
    <style>
      .cls-1 {
        fill: none;
        stroke: #ffe600;
        stroke-miterlimit: 10;
        stroke-width: 3px;
      }
    </style>
  </defs>
  <g id="Layer_1-2" data-name="Layer 1">
    <path id="ScalpelL" class="cls-1" d="m66.59,1.59c.75,3.69,1.81,6.87,1.98,10.09,1.55,30.54,4.69,60.99,1.67,91.7-2.41,24.48-2.37,49.2-4.65,73.7-4.03,43.4-3.81,86.91-4.03,130.37-.46,89.88.09,179.77.22,269.66,0,1.33.03,2.66,0,4-.41,26.01-23.63,36.75-45.14,25.7-11.47-5.89-15.56-16.32-15.12-28.25,1.08-29.55,2.85-59.08,4.31-88.62,1.37-27.55,2.61-55.1,4.06-82.65,2.17-41.14,4.5-82.27,6.7-123.41,1.24-23.23,2.84-46.46,3.33-69.71.22-10.7,2.46-20.54,7.66-29.53,5.37-9.3,6.99-18.28,2.15-28.23-2.73-5.6-4.8-11.52-7.15-17.31-.49-1.21-1.22-2.42-1.33-3.67-2.49-28.09-6.62-56.09-2.1-84.42C23.27,25.25,37.82,9.14,62.44,1.63c.88-.27,1.92-.03,4.15-.03Z"/>
  </g>
</svg>