<?xml version="1.0" encoding="UTF-8"?>
<svg id="Layer_2" data-name="Layer 2" xmlns="http://www.w3.org/2000/svg" viewBox="0 0 78.1 578.48">
  <defs>
    <style>
      .cls-1 {
        fill: none;
        stroke: #ffe600;
        stroke-miterlimit: 10;
        stroke-width: 3px;
      }
    </style>
  </defs>
  <g id="Layer_1-2" data-name="Layer 1">
    <path id="ScalpelR" class="cls-1" d="m75.48,1.72c.48,3.04,1.02,4.95,1.05,6.86.28,23.97-.15,47.88-2.59,71.78-2.23,21.83-3.94,43.75-4.83,65.68-4.14,103.01-6.57,206.05-6.55,309.15,0,29.96-.66,59.92-1.12,89.88-.26,17.36-8.43,28.19-23.4,31.38-13.8,2.94-30.96-6.86-34.71-20.3-1.31-4.71-2.02-9.82-1.78-14.68.9-17.92,2.37-35.8,3.54-53.71,2.39-36.81,4.73-73.62,7.07-110.43,2.34-36.82,4.59-73.64,6.99-110.45,1.88-28.84,3.81-57.69,6.02-86.51.32-4.17,1.65-8.6,3.7-12.24,8.22-14.61,10.59-30.96,8-46.45-3.91-23.42-.05-46.32.31-69.42.13-8.45,2.77-17.07,5.5-25.21C47.7,12.11,58.94,4.33,75.48,1.72Z"/>
  </g>
</svg>