<?xml version="1.0" encoding="UTF-8"?>
<svg id="Layer_2" data-name="Layer 2" xmlns="http://www.w3.org/2000/svg" viewBox="0 0 103.56 665.85">
  <defs>
    <style>
      .cls-1 {
        fill: none;
        stroke: #ffe600;
        stroke-miterlimit: 10;
        stroke-width: 3px;
      }
    </style>
  </defs>
  <g id="Layer_1-2" data-name="Layer 1">
    <path id="Senn" class="cls-1" d="m3.29,654.59c3.16-.98,4.61-1.97,5.4-1.59,10.34,5.01,21.42,3.73,32.3,4,7.98.2,15.97.19,23.96.11,7.97-.08,9.16-1.29,10.14-8.97,3.26-25.46,2.72-51.01,1.99-76.57-.34-11.97-.7-23.93-.94-35.9-.56-27.93-1.02-55.86-1.59-83.79-.67-33.25-.39-66.56-2.41-99.72-1.88-30.74,1.46-61.1,3.22-91.59,1.39-24.21,3.69-48.36,5.5-72.54,2.2-29.47,4.3-58.96,6.45-88.43.68-9.33.32-18.36-2.63-27.55-2.17-6.76-2.13-14.36-2.33-21.6-.26-9.3.39-18.62.34-27.92-.03-5.84-1.52-11.22-7.61-14.56-8.56,2.55-8.85,11.61-13.62,17.91h-10c-1.76-14.72,5.8-23.92,19.55-24.35,2.32-.07,4.66,0,6.98.19,12.95,1.05,21.04,7.32,22.03,20.11,1.5,19.43,4.42,39.05-1.61,58.41-1.25,4.02-1.29,8.53-1.28,12.82.07,72.57.71,145.14.19,217.7-.24,33.91-2.66,67.8-4.15,101.7-1.52,34.56-3.12,69.12-4.65,103.67-1.31,29.56-2.84,59.11-3.76,88.67-.44,14.27.29,28.58.49,42.86.03,2.33.15,4.67.03,6.99-.38,7.47-2.19,9.45-9.63,9.66-6.31.18-12.64-.22-18.96-.23-9.32-.01-18.65-.2-27.95.23-9.22.43-16.63-3.26-25.45-9.71Z"/>
  </g>
</svg>