<?xml version="1.0" encoding="UTF-8"?>
<svg id="Layer_2" data-name="Layer 2" xmlns="http://www.w3.org/2000/svg" viewBox="0 0 73.31 822.37">
  <defs>
    <style>
      .cls-1 {
        fill: none;
        stroke: #ffe600;
        stroke-miterlimit: 10;
        stroke-width: 3px;
      }
    </style>
  </defs>
  <g id="Layer_1-2" data-name="Layer 1">
    <path id="Spayhook" class="cls-1" d="m7.68,470.82c0-11.95-.13-23.91.09-35.86.06-3.19.23-7.06,1.97-9.43,7.62-10.38,8.56-22.06,8.11-34.22-.75-20.26-1.37-40.52-2.11-60.77-1.07-29.55-2.17-59.1-3.32-88.65-1.1-28.22-2.24-56.45-3.42-84.67-1.15-27.55-1.99-55.12-3.69-82.64-.82-13.2-4.89-26.13-3.55-39.57.39-3.97.17-8.01.81-11.93C4.4,11.78,11.57,4.19,22.45,2.18,34.15.02,44.4,2.84,51.66,12.73c2.7,3.68,4.84,8.06,6.04,12.44.88,3.2,1.47,7.55-2.94,9.59-4.67,2.17-7.68-.52-9.94-4.08-1.95-3.07-3.32-6.51-5.12-9.68-2.3-4.06-4.43-8.47-10.41-7.51-5.3.85-9.32,4.6-9.81,10.93-.56,7.25.07,14.59,0,21.88-.05,5.29-.53,10.58-.56,15.88-.05,7.29-.11,14.59.25,21.87,2.36,48.51,4.59,97.02,7.33,145.5,3.15,55.77,6.83,111.51,10.14,167.28.53,8.97,3.21,17.01,8.81,23.92,3.28,4.06,4.88,8.39,5.26,13.56,2.6,35.79,5.77,71.55,7.96,107.37,2.96,48.43,5.25,96.9,7.72,145.36,1.48,29.19,2.74,58.4,4.13,87.6.32,6.62.66,13.25,1.21,19.85,1.71,20.68-19.19,32.66-35.75,22.96-8.8-5.15-13.3-11.44-13.85-21.18-1.65-29.18-3.39-58.36-4.94-87.55-1.89-35.5-3.76-70.99-5.37-106.5-1.54-33.85-2.71-67.73-4.14-101.59-.42-9.94-1.15-19.87-1.74-29.8.59,0,1.18-.01,1.77-.02Z"/>
  </g>
</svg>